<?xml version="1.0" encoding="UTF-8" standalone="no"?>
<!DOCTYPE svg PUBLIC "-//W3C//DTD SVG 1.1//EN" "http://www.w3.org/Graphics/SVG/1.1/DTD/svg11.dtd">
<svg width="100%" height="100%" viewBox="0 0 96 96" version="1.1" xmlns="http://www.w3.org/2000/svg" xmlns:xlink="http://www.w3.org/1999/xlink" xml:space="preserve" xmlns:serif="http://www.serif.com/" style="fill-rule:evenodd;clip-rule:evenodd;stroke-linejoin:round;stroke-miterlimit:2;">
    <g transform="matrix(1,0,0,1,-1670,0)">
        <g transform="matrix(0.12,0,0,0.12,1466,0)">
            <g transform="matrix(8.33333,0,0,8.33333,-15400,-2933.33)">
                <g transform="matrix(1.14286,0,0,1.14286,1526.29,-61.7143)">
                    <path d="M544,373.76C544,367.269 538.731,362 532.24,362L471.76,362C465.269,362 460,367.269 460,373.76L460,434.24C460,440.731 465.269,446 471.76,446L532.24,446C538.731,446 544,440.731 544,434.24L544,373.76Z"/>
                </g>
                <g transform="matrix(87.2727,0,0,87.2727,2076.69,431.418)">
                    <path d="M0.07,-0.72L0.51,-0.72L0.51,-0.584L0.206,-0.584L0.206,-0.428L0.45,-0.428L0.45,-0.292L0.206,-0.292L0.206,0L0.07,0L0.07,-0.72Z" style="fill:url(#_Linear1);fill-rule:nonzero;"/>
                </g>
            </g>
        </g>
    </g>
    <defs>
        <linearGradient id="_Linear1" x1="0" y1="0" x2="1" y2="0" gradientUnits="userSpaceOnUse" gradientTransform="matrix(0.486667,-0.72,0.72,0.486667,0.0233333,0)"><stop offset="0" style="stop-color:rgb(249,218,0);stop-opacity:1"/><stop offset="0.5" style="stop-color:rgb(255,0,137);stop-opacity:1"/><stop offset="1" style="stop-color:rgb(6,0,255);stop-opacity:1"/></linearGradient>
    </defs>
</svg>
