<?xml version="1.0" encoding="UTF-8" standalone="no"?>
<!DOCTYPE svg PUBLIC "-//W3C//DTD SVG 1.1//EN" "http://www.w3.org/Graphics/SVG/1.1/DTD/svg11.dtd">
<svg width="100%" height="100%" viewBox="0 0 384 98" version="1.1" xmlns="http://www.w3.org/2000/svg" xmlns:xlink="http://www.w3.org/1999/xlink" xml:space="preserve" xmlns:serif="http://www.serif.com/" style="fill-rule:evenodd;clip-rule:evenodd;stroke-linejoin:round;stroke-miterlimit:2;">
    <g transform="matrix(1,0,0,1,-208.038,-351.046)">
        <g>
            <g>
                <g transform="matrix(0.707107,0.707107,-0.707107,0.707107,473.712,-240.639)">
                    <path d="M544,387.2C544,373.292 532.708,362 518.8,362L485.2,362C471.292,362 460,373.292 460,387.2L460,420.8C460,434.708 471.292,446 485.2,446L518.8,446C532.708,446 544,434.708 544,420.8L544,387.2Z" style="fill:url(#_Linear1);"/>
                </g>
                <g transform="matrix(1,0,0,1,41.008,-4)">
                    <path d="M544,387.2C544,373.292 532.708,362 518.8,362L485.2,362C471.292,362 460,373.292 460,387.2L460,420.8C460,434.708 471.292,446 485.2,446L518.8,446C532.708,446 544,434.708 544,420.8L544,387.2Z" style="fill:url(#_Linear2);"/>
                </g>
                <g transform="matrix(1,0,0,1,117.664,17.78)">
                    <g transform="matrix(48,0,0,48,403,399.5)">
                        <path d="M0.08,-0.735L0.216,-0.735L0.216,-0.615L0.08,-0.615L0.08,-0.735ZM0.08,-0.54L0.216,-0.54L0.216,0L0.08,0L0.08,-0.54Z" style="fill:white;fill-rule:nonzero;"/>
                    </g>
                    <g transform="matrix(48,0,0,48,417.208,399.5)">
                        <path d="M0.555,-0.72L0.555,0L0.435,0L0.435,-0.031C0.395,0 0.346,0.015 0.289,0.015C0.24,0.015 0.197,0.003 0.159,-0.022C0.121,-0.047 0.092,-0.081 0.071,-0.125C0.05,-0.168 0.04,-0.216 0.04,-0.27C0.04,-0.325 0.051,-0.374 0.072,-0.417C0.093,-0.46 0.123,-0.494 0.162,-0.519C0.201,-0.543 0.245,-0.555 0.296,-0.555C0.342,-0.555 0.383,-0.544 0.418,-0.522L0.418,-0.72L0.555,-0.72ZM0.311,-0.106C0.394,-0.106 0.435,-0.161 0.435,-0.27C0.435,-0.321 0.425,-0.362 0.406,-0.391C0.387,-0.42 0.357,-0.434 0.316,-0.434C0.287,-0.434 0.262,-0.427 0.243,-0.412C0.223,-0.398 0.208,-0.378 0.199,-0.354C0.189,-0.329 0.184,-0.301 0.184,-0.27C0.184,-0.222 0.195,-0.182 0.216,-0.152C0.237,-0.121 0.269,-0.106 0.311,-0.106Z" style="fill:white;fill-rule:nonzero;"/>
                    </g>
                </g>
            </g>
            <g transform="matrix(1,0,0,1,-199.442,23.508)">
                <g transform="matrix(64,0,0,64,403,399.5)">
                    <path d="M0.07,-0.72L0.51,-0.72L0.51,-0.584L0.206,-0.584L0.206,-0.428L0.45,-0.428L0.45,-0.292L0.206,-0.292L0.206,0L0.07,0L0.07,-0.72Z" style="fill-rule:nonzero;"/>
                </g>
                <g transform="matrix(64,0,0,64,433.72,399.5)">
                    <rect x="0.08" y="-0.735" width="0.136" height="0.735" style="fill-rule:nonzero;"/>
                </g>
                <g transform="matrix(64,0,0,64,449.464,399.5)">
                    <path d="M0.566,-0.54L0.566,0L0.446,0L0.446,-0.056C0.426,-0.033 0.401,-0.015 0.372,-0.003C0.342,0.01 0.309,0.016 0.271,0.016C0.208,0.016 0.16,0 0.129,-0.033C0.098,-0.065 0.079,-0.099 0.071,-0.135C0.064,-0.171 0.06,-0.205 0.06,-0.237L0.06,-0.54L0.198,-0.54L0.198,-0.285C0.198,-0.258 0.2,-0.232 0.204,-0.208C0.208,-0.184 0.219,-0.162 0.236,-0.142C0.253,-0.122 0.279,-0.112 0.314,-0.112C0.345,-0.112 0.372,-0.123 0.395,-0.144C0.418,-0.166 0.429,-0.206 0.429,-0.266L0.429,-0.54L0.566,-0.54Z" style="fill-rule:nonzero;"/>
                </g>
                <g transform="matrix(64,0,0,64,486.968,399.5)">
                    <path d="M0.313,0.015C0.259,0.015 0.212,0.003 0.171,-0.021C0.129,-0.045 0.097,-0.079 0.074,-0.122C0.051,-0.165 0.04,-0.215 0.04,-0.27C0.04,-0.326 0.052,-0.375 0.075,-0.418C0.098,-0.461 0.13,-0.495 0.172,-0.519C0.213,-0.543 0.26,-0.555 0.313,-0.555C0.367,-0.555 0.414,-0.543 0.456,-0.519C0.497,-0.495 0.53,-0.461 0.553,-0.418C0.576,-0.374 0.587,-0.325 0.587,-0.27C0.587,-0.215 0.575,-0.165 0.552,-0.122C0.529,-0.079 0.497,-0.045 0.455,-0.021C0.414,0.003 0.366,0.015 0.313,0.015ZM0.313,-0.112C0.355,-0.112 0.388,-0.126 0.41,-0.155C0.432,-0.184 0.443,-0.222 0.443,-0.27C0.443,-0.319 0.432,-0.358 0.409,-0.386C0.387,-0.414 0.355,-0.428 0.313,-0.428C0.27,-0.428 0.238,-0.414 0.216,-0.386C0.195,-0.358 0.184,-0.319 0.184,-0.27C0.184,-0.221 0.195,-0.182 0.217,-0.154C0.239,-0.126 0.271,-0.112 0.313,-0.112Z" style="fill-rule:nonzero;"/>
                </g>
                <g transform="matrix(64,0,0,64,523.896,399.5)">
                    <path d="M0.248,-0.514C0.278,-0.533 0.314,-0.542 0.356,-0.542C0.367,-0.542 0.378,-0.541 0.387,-0.54L0.387,-0.413C0.377,-0.416 0.364,-0.418 0.348,-0.418C0.323,-0.418 0.301,-0.413 0.281,-0.404C0.257,-0.393 0.239,-0.377 0.226,-0.355C0.213,-0.333 0.207,-0.307 0.207,-0.276L0.207,0L0.07,0L0.07,-0.54L0.19,-0.54L0.19,-0.453C0.205,-0.48 0.224,-0.5 0.248,-0.514Z" style="fill-rule:nonzero;"/>
                </g>
                <g transform="matrix(64,0,0,64,546.424,399.5)">
                    <path d="M0.187,-0.232C0.192,-0.193 0.205,-0.164 0.226,-0.143C0.248,-0.122 0.277,-0.112 0.313,-0.112C0.339,-0.112 0.362,-0.118 0.381,-0.13C0.4,-0.141 0.415,-0.158 0.425,-0.18L0.561,-0.141C0.548,-0.109 0.529,-0.081 0.504,-0.057C0.48,-0.034 0.452,-0.016 0.421,-0.004C0.389,0.009 0.356,0.015 0.321,0.015C0.266,0.015 0.218,0.003 0.175,-0.021C0.133,-0.044 0.1,-0.077 0.076,-0.119C0.052,-0.162 0.04,-0.21 0.04,-0.263C0.04,-0.321 0.052,-0.372 0.075,-0.416C0.098,-0.46 0.13,-0.495 0.172,-0.519C0.213,-0.543 0.26,-0.555 0.313,-0.555C0.365,-0.555 0.41,-0.544 0.449,-0.521C0.487,-0.498 0.516,-0.465 0.537,-0.423C0.557,-0.38 0.568,-0.331 0.568,-0.274C0.568,-0.265 0.567,-0.251 0.566,-0.232L0.187,-0.232ZM0.319,-0.437C0.247,-0.437 0.204,-0.402 0.19,-0.333L0.428,-0.333C0.423,-0.369 0.412,-0.396 0.395,-0.412C0.377,-0.429 0.352,-0.437 0.319,-0.437Z" style="fill-rule:nonzero;"/>
                </g>
                <g transform="matrix(64,0,0,64,582.136,399.5)">
                    <path d="M0.238,-0.435L0.238,-0.209C0.238,-0.191 0.239,-0.177 0.24,-0.167C0.241,-0.156 0.244,-0.147 0.249,-0.14C0.263,-0.118 0.29,-0.108 0.33,-0.108C0.345,-0.108 0.367,-0.109 0.394,-0.113L0.394,0C0.359,0.006 0.327,0.009 0.297,0.01C0.256,0.009 0.221,0.003 0.191,-0.009C0.161,-0.021 0.139,-0.04 0.124,-0.067C0.115,-0.084 0.109,-0.101 0.106,-0.118C0.103,-0.135 0.102,-0.156 0.102,-0.18L0.102,-0.229L0.102,-0.435L0.01,-0.435L0.01,-0.54L0.102,-0.54L0.102,-0.69L0.238,-0.69L0.238,-0.54L0.394,-0.54L0.394,-0.435L0.238,-0.435ZM0.622,-0.435L0.622,-0.209C0.622,-0.191 0.623,-0.177 0.624,-0.167C0.625,-0.156 0.628,-0.147 0.633,-0.14C0.647,-0.118 0.674,-0.108 0.714,-0.108C0.729,-0.108 0.751,-0.109 0.778,-0.113L0.778,0C0.743,0.006 0.711,0.009 0.681,0.01C0.64,0.009 0.605,0.003 0.575,-0.009C0.545,-0.021 0.523,-0.04 0.508,-0.067C0.499,-0.084 0.493,-0.101 0.49,-0.118C0.487,-0.135 0.486,-0.156 0.486,-0.18L0.486,-0.229L0.486,-0.435L0.394,-0.435L0.394,-0.54L0.486,-0.54L0.486,-0.69L0.622,-0.69L0.622,-0.54L0.778,-0.54L0.778,-0.435L0.622,-0.435Z" style="fill-rule:nonzero;"/>
                </g>
                <g transform="matrix(64,0,0,64,631.928,399.5)">
                    <path d="M0.313,0.015C0.259,0.015 0.212,0.003 0.171,-0.021C0.129,-0.045 0.097,-0.079 0.074,-0.122C0.051,-0.165 0.04,-0.215 0.04,-0.27C0.04,-0.326 0.052,-0.375 0.075,-0.418C0.098,-0.461 0.13,-0.495 0.172,-0.519C0.213,-0.543 0.26,-0.555 0.313,-0.555C0.367,-0.555 0.414,-0.543 0.456,-0.519C0.497,-0.495 0.53,-0.461 0.553,-0.418C0.576,-0.374 0.587,-0.325 0.587,-0.27C0.587,-0.215 0.575,-0.165 0.552,-0.122C0.529,-0.079 0.497,-0.045 0.455,-0.021C0.414,0.003 0.366,0.015 0.313,0.015ZM0.313,-0.112C0.355,-0.112 0.388,-0.126 0.41,-0.155C0.432,-0.184 0.443,-0.222 0.443,-0.27C0.443,-0.319 0.432,-0.358 0.409,-0.386C0.387,-0.414 0.355,-0.428 0.313,-0.428C0.27,-0.428 0.238,-0.414 0.216,-0.386C0.195,-0.358 0.184,-0.319 0.184,-0.27C0.184,-0.221 0.195,-0.182 0.217,-0.154C0.239,-0.126 0.271,-0.112 0.313,-0.112Z" style="fill-rule:nonzero;"/>
                </g>
            </g>
        </g>
    </g>
    <defs>
        <linearGradient id="_Linear1" x1="0" y1="0" x2="1" y2="0" gradientUnits="userSpaceOnUse" gradientTransform="matrix(84,-84,84,84,460,446)"><stop offset="0" style="stop-color:rgb(6,0,255);stop-opacity:1"/><stop offset="1" style="stop-color:black;stop-opacity:1"/></linearGradient>
        <linearGradient id="_Linear2" x1="0" y1="0" x2="1" y2="0" gradientUnits="userSpaceOnUse" gradientTransform="matrix(84,-84,84,84,460,446)"><stop offset="0" style="stop-color:rgb(255,0,137);stop-opacity:1"/><stop offset="1" style="stop-color:rgb(249,218,0);stop-opacity:1"/></linearGradient>
    </defs>
</svg>
